
<svg
   version="1.1"
   xmlns="http://www.w3.org/2000/svg"
   viewBox="0 0 512 512">
  <path
     d="m 174.37763,264 h 32.2617 L 190.50848,217.54526 Z M 344.1356,250.0339 c -11.54822,0 -20.94916,9.40093 -20.94916,20.94915 0,11.54822 9.40094,20.94915 20.94916,20.94915 11.54822,0 20.94915,-9.40093 20.94915,-20.94915 0,-11.54822 -9.40093,-20.94915 -20.94915,-20.94915 z M 441.89831,82.440679 H 78.779661 c -23.131356,0 -41.898305,18.766951 -41.898305,41.898301 v 251.38983 c 0,23.13136 18.766949,41.89831 41.898305,41.89831 H 441.89831 c 23.13136,0 41.8983,-18.76695 41.8983,-41.89831 V 124.33898 c 0,-23.13135 -18.76694,-41.898301 -41.8983,-41.898301 z M 255.60797,333.83051 h -14.78661 c -5.94432,0 -11.24271,-3.77085 -13.19797,-9.38347 l -6.43313,-18.54873 h -61.35483 l -6.44187,18.54873 a 13.966102,13.966102 0 0 1 -13.19796,9.38347 h -14.78662 c -9.61042,0 -16.34907,-9.47076 -13.19796,-18.54873 l 46.87373,-134.97364 a 20.944788,20.944788 0 0 1 19.78822,-14.07085 h 23.27102 a 20.940424,20.940424 0 0 1 19.78822,14.07958 l 46.865,134.96491 c 3.1511,9.07797 -3.58754,18.54873 -13.18924,18.54873 z m 151.37508,-13.9661 c 0,7.71627 -6.24983,13.9661 -13.9661,13.9661 h -13.9661 c -4.23347,0 -7.89085,-1.98144 -10.45712,-4.95797 -7.52423,3.19475 -15.79042,4.95797 -24.45813,4.95797 -34.65339,0 -62.84746,-28.19407 -62.84746,-62.84746 0,-34.65339 28.19407,-62.84746 62.84746,-62.84746 7.38457,0 14.36762,1.51009 20.94915,3.85814 v -31.79034 c 0,-7.71627 6.24983,-13.9661 13.9661,-13.9661 h 13.9661 c 7.71627,0 13.9661,6.24983 13.9661,13.9661 z"
   />
</svg>
