<svg
   xmlns="http://www.w3.org/2000/svg"
   version="1.1"
>
    <path
      d="m 23.34225,286.72917 -1.79087,-1.03416 c 0.18076,-0.97531 0.18076,-1.97585 0,-2.95115 l 1.79087,-1.03417 c 0.20599,-0.11771 0.29847,-0.36153 0.23121,-0.58855 -0.46663,-1.49659 -1.26118,-2.85025 -2.29954,-3.9769 -0.15975,-0.17236 -0.4204,-0.2144 -0.62218,-0.0967 l -1.79087,1.03416 c -0.7525,-0.6474 -1.61851,-1.14767 -2.55598,-1.47557 V 274.542 c 0,-0.23542 -0.16396,-0.44141 -0.39517,-0.49186 -1.54284,-0.34472 -3.12351,-0.3279 -4.59068,0 -0.23122,0.0505 -0.39517,0.25644 -0.39517,0.49186 v 2.06833 c -0.9332701,0.33211 -1.7992801,0.83238 -2.5559801,1.47558 l -1.78667,-1.03417 c -0.20599,-0.11771 -0.46243,-0.0799 -0.62218,0.0967 -1.03836,1.12245 -1.83291,2.47611 -2.29954,3.97691 -0.0715,0.22701 0.0252,0.47084 0.23122,0.58855 l 1.79086,1.03416 c -0.18076,0.97531 -0.18076,1.97584 0,2.95115 l -1.79086,1.03417 c -0.206,0.1177 -0.29848,0.36153 -0.23122,0.58854 0.46663,1.4966 1.26118,2.85026 2.29954,3.97691 0.15975,0.17236 0.42039,0.2144 0.62218,0.0967 l 1.79087,-1.03416 c 0.7525,0.6474 1.61851,1.14766 2.5559801,1.47557 v 2.06833 c 0,0.23542 0.16396,0.44141 0.39517,0.49186 1.54284,0.34472 3.12351,0.3279 4.59068,0 0.23122,-0.0505 0.39517,-0.25644 0.39517,-0.49186 v -2.06833 c 0.93327,-0.33211 1.79928,-0.83238 2.55598,-1.47557 l 1.79087,1.03416 c 0.20599,0.11771 0.46243,0.0799 0.62218,-0.0967 1.03837,-1.12245 1.83291,-2.47611 2.29954,-3.97691 0.0631,-0.23121 -0.0294,-0.47504 -0.23541,-0.59275 z m -9.72787,0.8534 c -1.85393,0 -3.36314,-1.50921 -3.36314,-3.36314 0,-1.85393 1.50921,-3.36313 3.36314,-3.36313 1.85393,0 3.36313,1.5092 3.36313,3.36313 0,1.85393 -1.5092,3.36314 -3.36313,3.36314 z"
   />
</svg>
