<?xml version="1.0" encoding="UTF-8" standalone="no"?>
<!-- Created with Inkscape (http://www.inkscape.org/) -->

<svg
   xmlns:dc="http://purl.org/dc/elements/1.1/"
   xmlns:cc="http://creativecommons.org/ns#"
   xmlns:rdf="http://www.w3.org/1999/02/22-rdf-syntax-ns#"
   xmlns:svg="http://www.w3.org/2000/svg"
   xmlns="http://www.w3.org/2000/svg"
   xmlns:sodipodi="http://sodipodi.sourceforge.net/DTD/sodipodi-0.dtd"
   xmlns:inkscape="http://www.inkscape.org/namespaces/inkscape"
   width="100"
   height="100"
   viewBox="0 0 26.458333 26.458333"
   version="1.1"
   id="svg48"
   inkscape:version="0.92.4 (unknown)"
   sodipodi:docname="home.svg">
  <defs
     id="defs42" />
  <sodipodi:namedview
     id="base"
     pagecolor="#ffffff"
     bordercolor="#666666"
     borderopacity="1.0"
     inkscape:pageopacity="0.0"
     inkscape:pageshadow="2"
     inkscape:zoom="2.8"
     inkscape:cx="101.18089"
     inkscape:cy="-1.2423579"
     inkscape:document-units="mm"
     inkscape:current-layer="layer1"
     showgrid="false"
     inkscape:window-width="1600"
     inkscape:window-height="835"
     inkscape:window-x="0"
     inkscape:window-y="0"
     inkscape:window-maximized="1"
     units="px" />
  <metadata
     id="metadata45">
    <rdf:RDF>
      <cc:Work
         rdf:about="">
        <dc:format>image/svg+xml</dc:format>
        <dc:type
           rdf:resource="http://purl.org/dc/dcmitype/StillImage" />
        <dc:title></dc:title>
      </cc:Work>
    </rdf:RDF>
  </metadata>
  <g
     inkscape:label="Layer 1"
     inkscape:groupmode="layer"
     id="layer1"
     transform="translate(0,-270.54167)">
    <path
       d="m 13.132088,279.33526 -7.3827332,6.08054 v 6.56265 a 0.64068839,0.64068839 0 0 0 0.6406909,0.64069 l 4.4872223,-0.0116 a 0.64068839,0.64068839 0 0 0 0.637484,-0.64069 v -3.83251 a 0.64068839,0.64068839 0 0 1 0.640689,-0.64069 h 2.562749 a 0.64068839,0.64068839 0 0 1 0.640692,0.64069 v 3.82971 a 0.64068839,0.64068839 0 0 0 0.640686,0.6427 l 4.485621,0.0125 a 0.64068839,0.64068839 0 0 0 0.640689,-0.64069 v -6.56705 l -7.38113,-6.07614 a 0.48812447,0.48812447 0 0 0 -0.61266,0 z m 11.661731,4.13284 -3.347596,-2.75936 v -5.54637 a 0.48051627,0.48051627 0 0 0 -0.480518,-0.48051 h -2.242408 a 0.48051627,0.48051627 0 0 0 -0.480516,0.48051 v 2.90753 l -3.585053,-2.94957 a 1.9220652,1.9220652 0 0 0 -2.442623,0 L 2.0790133,283.4681 a 0.48051627,0.48051627 0 0 0 -0.064066,0.67673 l 1.021095,1.24133 a 0.48051627,0.48051627 0 0 0 0.6771296,0.0653 l 9.4189191,-7.75794 a 0.48812447,0.48812447 0 0 1 0.612659,0 l 9.419318,7.75794 a 0.48051627,0.48051627 0 0 0 0.67673,-0.064 l 1.021095,-1.24132 a 0.48051627,0.48051627 0 0 0 -0.06807,-0.67793 z"
   />
  </g>
</svg>
