<?xml version="1.0" encoding="UTF-8" standalone="no"?>
<!-- Created with Inkscape (http://www.inkscape.org/) -->

<svg
   xmlns:dc="http://purl.org/dc/elements/1.1/"
   xmlns:cc="http://creativecommons.org/ns#"
   xmlns:rdf="http://www.w3.org/1999/02/22-rdf-syntax-ns#"
   xmlns:svg="http://www.w3.org/2000/svg"
   xmlns="http://www.w3.org/2000/svg"
   xmlns:sodipodi="http://sodipodi.sourceforge.net/DTD/sodipodi-0.dtd"
   xmlns:inkscape="http://www.inkscape.org/namespaces/inkscape"
   width="100"
   height="100"
   viewBox="0 0 26.458333 26.458333"
   version="1.1"
   id="svg48"
   inkscape:version="0.92.4 (unknown)"
   sodipodi:docname="piramida.svg">
  <defs
     id="defs42" />
  <sodipodi:namedview
     id="base"
     pagecolor="#ffffff"
     bordercolor="#666666"
     borderopacity="1.0"
     inkscape:pageopacity="0.0"
     inkscape:pageshadow="2"
     inkscape:zoom="2.8"
     inkscape:cx="250.72085"
     inkscape:cy="45.833812"
     inkscape:document-units="mm"
     inkscape:current-layer="layer1"
     showgrid="false"
     inkscape:window-width="1600"
     inkscape:window-height="835"
     inkscape:window-x="0"
     inkscape:window-y="0"
     inkscape:window-maximized="1"
     units="px" />
  <metadata
     id="metadata45">
    <rdf:RDF>
      <cc:Work
         rdf:about="">
        <dc:format>image/svg+xml</dc:format>
        <dc:type
           rdf:resource="http://purl.org/dc/dcmitype/StillImage" />
        <dc:title></dc:title>
      </cc:Work>
    </rdf:RDF>
  </metadata>
  <g
     inkscape:label="Layer 1"
     inkscape:groupmode="layer"
     id="layer1"
     transform="translate(0,-270.54167)">
    <path
       d="m 22.002421,286.99842 h -0.583935 v -4.08757 c 0,-0.32116 -0.262772,-0.58395 -0.583945,-0.58395 h -0.583935 v -2.91969 c 0,-0.32118 -0.262773,-0.58395 -0.583946,-0.58395 h -0.583935 v -4.08758 c 0,-0.32117 -0.262772,-0.58394 -0.583946,-0.58394 -0.321163,0 -0.583934,0.26277 -0.583934,0.58394 v 0.58394 h -2.335762 v -0.58394 c 0,-0.32117 -0.262772,-0.58394 -0.583946,-0.58394 -0.321163,0 -0.583934,0.26277 -0.583934,0.58394 v 0.58394 h -2.335762 v -0.58394 c 0,-0.32117 -0.262782,-0.58394 -0.583945,-0.58394 -0.321164,0 -0.583946,0.26277 -0.583946,0.58394 v 0.58394 H 8.5717892 v -0.58394 c 0,-0.32117 -0.2627718,-0.58394 -0.5839349,-0.58394 -0.3211739,0 -0.5839457,0.26277 -0.5839457,0.58394 v 4.08758 H 6.8199735 c -0.3211737,0 -0.5839456,0.26277 -0.5839456,0.58395 v 2.91969 h -0.583935 c -0.3211737,0 -0.5839456,0.26279 -0.5839456,0.58395 v 4.08757 h -0.583935 c -0.3211738,0 -0.5839456,0.26279 -0.5839456,0.58395 v 4.67152 c 0,0.32117 0.2627718,0.58395 0.5839456,0.58395 h 2.9196963 v -5.83942 h 1.1678806 v -4.67152 h 1.1678914 v -3.50364 H 10.90755 v 3.50364 H 9.7396806 v 4.67152 H 8.5717892 v 5.83942 h 2.9197068 v -2.9197 c 0,-0.32117 0.262771,-0.58394 0.583945,-0.58394 h 2.335762 c 0.321162,0 0.583934,0.26277 0.583934,0.58394 v 2.9197 h 2.919708 v -5.83942 h -1.167881 v -4.67152 h -1.167881 v -3.50364 h 1.167881 v 3.50364 h 1.167881 v 4.67152 h 1.16788 v 5.83942 h 2.919696 c 0.321174,0 0.583946,-0.26278 0.583946,-0.58395 v -4.67152 c 0,-0.32116 -0.262772,-0.58395 -0.583946,-0.58395 z m -9.635012,-6.42334 c 0,-0.32117 0.262771,-0.58393 0.583935,-0.58393 h 0.583946 c 0.321163,0 0.583934,0.26276 0.583934,0.58393 v 1.75182 h -1.751815 z m 2.043794,6.42334 h -2.335762 v -2.33575 c 0,-0.32117 0.262772,-0.58394 0.583935,-0.58394 h 1.167881 c 0.321163,0 0.583946,0.26277 0.583946,0.58394 z"
      />
  </g>
</svg>
