<?xml version="1.0" encoding="UTF-8" standalone="no"?>
<svg
   xmlns:dc="http://purl.org/dc/elements/1.1/"
   xmlns:cc="http://creativecommons.org/ns#"
   xmlns:rdf="http://www.w3.org/1999/02/22-rdf-syntax-ns#"
   xmlns:svg="http://www.w3.org/2000/svg"
   xmlns="http://www.w3.org/2000/svg"
   id="svg4"
   viewBox="0 0 100 100"
   version="1.1">
  <metadata
     id="metadata10">
    <rdf:RDF>
      <cc:Work
         rdf:about="">
        <dc:format>image/svg+xml</dc:format>
        <dc:type
           rdf:resource="http://purl.org/dc/dcmitype/StillImage" />
        <dc:title></dc:title>
      </cc:Work>
    </rdf:RDF>
  </metadata>
  <defs
     id="defs8" />
  <path
     d="m 73.788668,50.254235 h -7.64838 c 3.613355,-5.826278 6.277088,-12.744443 6.277088,-19.198087 0,-15.147637 -9.823593,-24.68326 -21.940678,-24.68326 -12.117079,0 -21.940674,9.535623 -21.940674,24.68326 0,6.453644 2.663737,13.371809 6.277089,19.198087 h -7.648381 c -2.271201,0 -4.113874,1.840968 -4.113874,4.113885 v 5.485166 c 0,2.271195 1.842673,4.113871 4.113874,4.113871 H 43.620237 V 90.02172 c 0,2.271195 1.842674,4.113872 4.113878,4.113872 h 5.48517 c 2.271204,0 4.113878,-1.842677 4.113878,-4.113872 V 63.967157 h 16.455505 c 2.271205,0 4.113878,-1.842676 4.113878,-4.113871 V 54.36812 c 0,-2.272917 -1.842673,-4.113885 -4.113878,-4.113885 z M 50.476698,20.085809 c 5.075497,0 8.227756,4.203013 8.227756,10.970339 0,5.941122 -4.65211,13.394101 -8.227756,17.290283 -3.575642,-3.894473 -8.227752,-11.349161 -8.227752,-17.290283 0,-6.767326 3.152258,-10.970339 8.227752,-10.970339 z"/>
</svg>
