<?xml version="1.0" encoding="UTF-8" standalone="no"?>
<svg
   xmlns:dc="http://purl.org/dc/elements/1.1/"
   xmlns:cc="http://creativecommons.org/ns#"
   xmlns:rdf="http://www.w3.org/1999/02/22-rdf-syntax-ns#"
   xmlns:svg="http://www.w3.org/2000/svg"
   xmlns="http://www.w3.org/2000/svg"
   id="svg4"
   viewBox="0 0 100 100"
   version="1.1">
  <metadata
     id="metadata10">
    <rdf:RDF>
      <cc:Work
         rdf:about="">
        <dc:format>image/svg+xml</dc:format>
        <dc:type
           rdf:resource="http://purl.org/dc/dcmitype/StillImage" />
        <dc:title></dc:title>
      </cc:Work>
    </rdf:RDF>
  </metadata>
  <defs
     id="defs8" />
  <path d="m 50.172669,6.7707679 c -24.553392,0 -44.4567549,19.9033631 -44.4567549,44.4567641 0,24.553393 19.9033629,44.456753 44.4567549,44.456753 24.553402,0 44.456766,-19.90336 44.456766,-44.456753 0,-24.553401 -19.903364,-44.4567641 -44.456766,-44.4567641 z M 48.139852,49.834671 c -0.518066,0.864037 -1.452017,1.392861 -2.459461,1.392861 h -0.05556 c -0.760068,0 -1.489667,0.302947 -2.027443,0.840732 l -1.014624,1.014616 c -0.559293,0.559301 -0.559293,1.46815 0,2.027442 l 1.014624,1.014625 c 0.537776,0.537776 0.840732,1.267375 0.840732,2.027442 v 1.679675 c 0,1.584666 -1.283508,2.868175 -2.868175,2.868175 h -1.095288 c -1.086319,0 -2.079427,-0.613075 -2.565228,-1.586455 L 33.854544,53.005801 C 33.417142,52.131007 32.250159,51.94099 31.558209,52.63294 l -3.490219,3.488421 c -0.537776,0.537785 -1.267375,0.840731 -2.027442,0.840731 H 14.824176 c -0.302947,-1.871489 -0.503722,-3.777032 -0.503722,-5.73456 0,-19.768916 16.083307,-35.852232 35.852224,-35.852232 3.855908,0 7.564823,0.629207 11.047869,1.760348 l -8.991738,6.906927 c -0.91603,0.611285 -0.829982,1.98263 0.154165,2.475602 l 1.941395,0.969803 c 0.971592,0.485792 1.584667,1.4789 1.584667,2.565228 v 14.00388 c 0,0.792333 -0.641755,1.434087 -1.434088,1.434087 h -0.548534 c -0.543168,0 -1.039718,-0.306542 -1.281719,-0.792333 -0.279651,-0.559301 -1.068398,-0.58977 -1.391072,-0.05375 z m 30.714605,19.754573 c 0,0.760067 -0.302956,1.489666 -0.840741,2.027443 l -1.715526,1.715535 c -0.537785,0.537776 -1.267375,0.840732 -2.027443,0.840732 h -2.717595 c -0.760067,0 -1.489667,-0.302956 -2.027451,-0.840732 l -2.332187,-2.332187 a 4.7982827,4.7982827 0 0 0 -4.556819,-1.262001 l -3.812884,0.953671 c -0.227657,0.05738 -0.460698,0.08606 -0.695527,0.08606 h -1.853559 c -0.760067,0 -1.489666,-0.302947 -2.027443,-0.840732 L 52.112276,67.80204 a 1.4355231,1.4355231 0 0 1 -0.419472,-1.014616 v -1.828465 c 0,-0.586183 0.356729,-1.11321 0.901686,-1.331915 l 7.052131,-2.821565 c 0.35494,-0.141618 0.69195,-0.32626 1.002069,-0.546745 l 4.250286,-3.027723 a 1.4301453,1.4301453 0 0 1 0.831771,-0.265307 h 2.167263 c 0.57902,0 1.102461,0.347768 1.324744,0.883756 l 0.959045,2.303507 a 0.71704452,0.71704452 0 0 0 0.661473,0.440979 h 0.681192 c 0.319088,0 0.600527,-0.211524 0.688364,-0.516268 l 0.752895,-2.593908 c 0.08963,-0.306541 0.369284,-0.516277 0.688364,-0.516277 h 1.086328 c 0.396166,0 0.717043,0.320877 0.717043,0.717044 v 2.317851 c 0,0.380034 0.150579,0.745723 0.419472,1.014616 l 2.134998,2.134998 c 0.537785,0.537785 0.840731,1.267375 0.840731,2.027442 v 4.409826 z"/>
</svg>
