
<svg
   
   xmlns="http://www.w3.org/2000/svg"
  
   version="1.1"
   viewBox="0 0 100 100"
   >
  
  <path
     d="M 50.508975,32.58085 21.384677,56.56808 v 25.88914 a 2.5274652,2.5274652 0 0 0 2.527464,2.52746 l 17.70174,-0.0458 a 2.5274652,2.5274652 0 0 0 2.51482,-2.52748 V 67.29246 A 2.5274652,2.5274652 0 0 1 46.656177,64.765 h 10.109855 a 2.5274652,2.5274652 0 0 1 2.527463,2.52746 v 15.10792 a 2.5274652,2.5274652 0 0 0 2.527464,2.53536 l 17.695419,0.0489 a 2.5274652,2.5274652 0 0 0 2.527463,-2.52746 V 56.55064 L 52.925866,32.58078 a 1.9256126,1.9256126 0 0 0 -2.416891,0 z M 96.513578,48.88458 83.30758,37.9991 V 16.11915 A 1.8955989,1.8955989 0 0 0 81.411979,14.22356 H 72.56585 a 1.8955989,1.8955989 0 0 0 -1.895601,1.89559 V 27.5891 L 56.527508,15.95329 a 7.582396,7.582396 0 0 0 -9.635967,0 L 6.9054575,48.88458 a 1.8955989,1.8955989 0 0 0 -0.2527427,2.66963 l 4.0281402,4.89696 a 1.8955989,1.8955989 0 0 0 2.67122,0.2575 l 37.1569,-30.60445 a 1.9256126,1.9256126 0 0 1 2.416891,0 L 90.08434,56.70867 a 1.8955989,1.8955989 0 0 0 2.669634,-0.25276 l 4.028148,-4.89695 a 1.8955989,1.8955989 0 0 0 -0.268544,-2.67438 z"/>
</svg>
